<svg width="25" height="24" viewBox="0 0 25 24" fill="none" xmlns="http://www.w3.org/2000/svg">
<g id="Icon" clip-path="url(#clip0_4576_812)">
<path id="Icon_2" d="M12.5009 0.132812C5.94075 0.132812 0.62207 5.45149 0.62207 12.0116C0.62207 17.9397 4.9654 22.8533 10.6452 23.7479V15.4461H7.62771V12.0116H10.6452V9.39446C10.6452 6.41496 12.4189 4.77195 15.1311 4.77195C16.4308 4.77195 17.7922 5.00361 17.7922 5.00361V7.92491H16.2906C14.8175 7.92491 14.3565 8.84204 14.3565 9.78175V12.0092H17.6485L17.1222 15.4438H14.3565V23.7455C20.0364 22.8557 24.3797 17.9409 24.3797 12.0116C24.3797 5.45149 19.061 0.132812 12.5009 0.132812Z" fill="#692B96"/>
</g>
<defs>
<clipPath id="clip0_4576_812">
<rect width="24" height="24" fill="white" transform="translate(0.5)"/>
</clipPath>
</defs>
</svg>
