<svg width="25" height="24" viewBox="0 0 25 24" fill="none" xmlns="http://www.w3.org/2000/svg">
<g id="Icon">
<path id="Icon_2" d="M22.3865 10.0503H12.494V14.1501H18.1869C17.6571 16.7554 15.4391 18.2523 12.494 18.2523C11.6699 18.2537 10.8537 18.0924 10.0921 17.7776C9.33049 17.4629 8.63852 17.0009 8.05586 16.4181C7.47321 15.8354 7.01134 15.1433 6.69674 14.3816C6.38213 13.62 6.22099 12.8037 6.22256 11.9796C6.22115 11.1557 6.38241 10.3395 6.69708 9.57799C7.01175 8.81647 7.47365 8.12455 8.05628 7.54191C8.63892 6.95927 9.33084 6.49737 10.0924 6.1827C10.8539 5.86803 11.67 5.70678 12.494 5.70819C13.9897 5.70819 15.3416 6.23922 16.4025 7.10765L19.4913 4.02004C17.6095 2.37941 15.1967 1.36723 12.494 1.36723C11.0991 1.36316 9.71709 1.6349 8.42755 2.16684C7.13801 2.69878 5.96635 3.48041 4.97998 4.46679C3.9936 5.45317 3.21197 6.62482 2.68003 7.91436C2.14809 9.2039 1.87634 10.5859 1.88042 11.9808C1.87618 13.3758 2.14782 14.7579 2.67971 16.0475C3.21159 17.3371 3.99322 18.5088 4.97963 19.4952C5.96603 20.4816 7.13775 21.2632 8.42736 21.7951C9.71697 22.327 11.099 22.5987 12.494 22.5944C17.8008 22.5944 22.6265 18.7346 22.6265 11.9808C22.6265 11.3536 22.5302 10.6776 22.3865 10.0503Z" fill="#692B96"/>
</g>
</svg>
