<svg width="142" height="29" viewBox="0 0 142 29" fill="none" xmlns="http://www.w3.org/2000/svg">
<g clip-path="url(#clip0_4104_212)">
<path d="M77.6368 7.13117C75.1648 4.88983 72.1742 3.73917 68.7808 3.73917C65.2728 3.73917 62.2822 4.94583 59.8102 7.41917C57.3942 9.89117 56.1875 12.8258 56.1875 16.2752C56.1875 19.7832 57.3942 22.7165 59.8102 25.1885C62.2248 27.6045 65.2155 28.8125 68.7808 28.8125C70.7622 28.8125 72.8022 28.1952 74.0235 27.6845V21.2418C72.7382 22.6672 70.8808 23.5205 68.7808 23.5205C64.8128 23.5205 61.7075 20.4738 61.7075 16.2752C61.7075 12.1352 64.8128 9.02983 68.7808 9.02983C72.8155 9.02983 75.7822 12.0645 75.8515 16.1312H75.8542V26.5698V28.5245H81.3755V16.4485C81.3755 12.4805 80.1088 9.37517 77.6368 7.13117Z" fill="#692B96"/>
<path d="M9.72641 28.5254H4.20508V15.2987C4.20508 11.3881 5.24108 8.51206 7.25441 6.61472C9.32374 4.71605 11.7971 3.73872 14.6144 3.73872C17.4317 3.73872 19.9051 4.71605 21.9757 6.61472C24.0464 8.51206 25.0811 11.4454 25.0811 15.2987V28.5254H19.5597V15.2987C19.5597 11.2147 17.6051 9.02939 14.6144 9.02939C11.6237 9.02939 9.72641 11.1587 9.72641 15.2987V28.5254Z" fill="#692B96"/>
<path d="M90.5008 28.5254H84.9795V15.2987C84.9795 11.3881 86.0155 8.51206 88.0288 6.61472C90.0982 4.71605 92.5715 3.73872 95.3888 3.73872C98.2062 3.73872 100.679 4.71605 102.75 6.61472C104.819 8.51206 105.855 11.4454 105.855 15.2987V28.5254H100.334V15.2987C100.334 11.2147 98.3795 9.02939 95.3888 9.02939C92.3982 9.02939 90.5008 11.1587 90.5008 15.2987V28.5254Z" fill="#692B96"/>
<path d="M33.6587 16.2752C33.6587 18.4032 34.3493 20.1285 35.6707 21.5098C37.0507 22.8312 38.7187 23.5218 40.732 23.5218C42.744 23.5218 44.412 22.8312 45.7347 21.5098C47.116 20.1285 47.8053 18.4032 47.8053 16.2752C47.8053 14.1485 47.116 12.4218 45.7347 11.0992C44.412 9.71917 42.744 9.02983 40.732 9.02983C38.7187 9.02983 37.0507 9.71917 35.6707 11.0992C34.3493 12.4218 33.6587 14.1485 33.6587 16.2752ZM31.8187 7.41917C34.292 4.94583 37.224 3.73917 40.732 3.73917C44.1827 3.73917 47.116 4.94583 49.588 7.41917C52.0613 9.89117 53.2693 12.8258 53.2693 16.2752C53.2693 19.7832 52.0613 22.7178 49.588 25.1898C47.116 27.6045 44.1827 28.8125 40.732 28.8125C37.224 28.8125 34.292 27.6045 31.8187 25.1898C29.3453 22.7178 28.1387 19.7832 28.1387 16.2752C28.1387 12.8258 29.3453 9.89117 31.8187 7.41917Z" fill="#692B96"/>
<path d="M131.035 7.13117C128.563 4.88983 125.573 3.73917 122.179 3.73917C118.671 3.73917 115.681 4.94583 113.209 7.41917C110.793 9.89117 109.586 12.8258 109.586 16.2752C109.586 19.7832 110.793 22.7165 113.209 25.1885C115.623 27.6045 118.614 28.8125 122.179 28.8125C124.161 28.8125 126.201 28.1952 127.422 27.6845V21.2418C126.137 22.6672 124.279 23.5205 122.179 23.5205C118.211 23.5205 115.106 20.4738 115.106 16.2752C115.106 12.1352 118.211 9.02983 122.179 9.02983C126.214 9.02983 129.181 12.0645 129.25 16.1312H129.253V26.5698V28.5245H134.773V16.4485C134.773 12.4805 133.507 9.37517 131.035 7.13117Z" fill="#692B96"/>
<path d="M12.1057 1.61356C12.1017 1.61356 12.0977 1.61356 12.0924 1.61356C9.49371 1.97623 7.18438 3.11623 5.22571 5.0029C3.82171 6.39623 2.85905 8.23223 2.36571 10.4602C2.35371 10.5202 2.38705 10.5789 2.44571 10.5962C2.45905 10.6002 2.46971 10.6016 2.48305 10.6016C2.52838 10.6002 2.57105 10.5722 2.58838 10.5269C3.23238 8.81623 4.25505 7.21756 5.62838 5.7749C7.52838 3.77623 9.65771 2.48956 12.1377 1.84156C12.1977 1.8269 12.235 1.7669 12.223 1.7069C12.2124 1.6509 12.1617 1.61223 12.1057 1.61356Z" fill="#F47421"/>
<path d="M10.8355 0.0242796C10.8315 0.0242796 10.8262 0.0242786 10.8222 0.0256128C8.1062 0.404279 5.69153 1.59495 3.64486 3.56695C2.17686 5.02428 1.1702 6.94295 0.65553 9.27095C0.640863 9.33361 0.678197 9.39628 0.73953 9.41361C0.752863 9.41761 0.764863 9.41895 0.776863 9.41895C0.826196 9.41761 0.870197 9.38695 0.888863 9.34028C1.56086 7.55361 2.6302 5.88295 4.0662 4.37361C6.05153 2.28561 8.27686 0.940279 10.8689 0.264279C10.9315 0.246945 10.9715 0.185613 10.9582 0.121613C10.9462 0.0642796 10.8942 0.0229454 10.8355 0.0242796Z" fill="#F47421"/>
<path d="M141.349 25.7654C141.349 27.2907 140.113 28.5254 138.589 28.5254C137.064 28.5254 135.828 27.2907 135.828 25.7654C135.828 24.2401 137.064 23.0054 138.589 23.0054C140.113 23.0054 141.349 24.2401 141.349 25.7654Z" fill="#F47421"/>
</g>
<defs>
<clipPath id="clip0_4104_212">
<rect width="141" height="29" fill="white" transform="translate(0.5)"/>
</clipPath>
</defs>
</svg>
