<svg width="121" height="25" viewBox="0 0 121 25" fill="none" xmlns="http://www.w3.org/2000/svg">
<g clip-path="url(#clip0_4026_39189)">
<path d="M66.195 6.14806C64.0736 4.21588 61.5071 3.22392 58.5951 3.22392C55.5847 3.22392 53.0183 4.26415 50.8969 6.39634C48.8236 8.52737 47.7881 11.0573 47.7881 14.0308C47.7881 17.055 48.8236 19.5837 50.8969 21.7147C52.9691 23.7975 55.5355 24.8389 58.5951 24.8389C60.2954 24.8389 62.0461 24.3067 63.0942 23.8665V18.3124C61.9911 19.5412 60.3973 20.2768 58.5951 20.2768C55.19 20.2768 52.5251 17.6504 52.5251 14.0308C52.5251 10.4619 55.19 7.78485 58.5951 7.78485C62.0575 7.78485 64.6034 10.4009 64.6629 13.9067H64.6652V22.9055V24.5906H69.4033V14.1802C69.4033 10.7596 68.3163 8.08255 66.195 6.14806Z" fill="white"/>
<path d="M7.91785 24.5908H3.17969V13.1885C3.17969 9.81726 4.06874 7.33795 5.79649 5.70231C7.5723 4.06553 9.69481 3.22301 12.1125 3.22301C14.5302 3.22301 16.6527 4.06553 18.4297 5.70231C20.2066 7.33795 21.0946 9.86668 21.0946 13.1885V24.5908H16.3564V13.1885C16.3564 9.66783 14.679 7.78392 12.1125 7.78392C9.54606 7.78392 7.91785 9.61956 7.91785 13.1885V24.5908Z" fill="white"/>
<path d="M77.2352 24.5908H72.4971V13.1885C72.4971 9.81726 73.3861 7.33795 75.1139 5.70231C76.8897 4.06553 79.0122 3.22301 81.4299 3.22301C83.8476 3.22301 85.9701 4.06553 87.7471 5.70231C89.5229 7.33795 90.4119 9.86668 90.4119 13.1885V24.5908H85.6738V13.1885C85.6738 9.66783 83.9964 7.78392 81.4299 7.78392C78.8634 7.78392 77.2352 9.61956 77.2352 13.1885V24.5908Z" fill="white"/>
<path d="M28.4548 14.0308C28.4548 15.8653 29.0475 17.3527 30.1814 18.5435C31.3657 19.6825 32.7971 20.2779 34.5248 20.2779C36.2514 20.2779 37.6828 19.6825 38.8179 18.5435C40.0033 17.3527 40.5948 15.8653 40.5948 14.0308C40.5948 12.1975 40.0033 10.709 38.8179 9.56875C37.6828 8.3791 36.2514 7.78485 34.5248 7.78485C32.7971 7.78485 31.3657 8.3791 30.1814 9.56875C29.0475 10.709 28.4548 12.1975 28.4548 14.0308ZM26.8758 6.39634C28.9983 4.26415 31.5144 3.22392 34.5248 3.22392C37.486 3.22392 40.0033 4.26415 42.1246 6.39634C44.2472 8.52737 45.2838 11.0573 45.2838 14.0308C45.2838 17.055 44.2472 19.5848 42.1246 21.7159C40.0033 23.7975 37.486 24.8389 34.5248 24.8389C31.5144 24.8389 28.9983 23.7975 26.8758 21.7159C24.7533 19.5848 23.7178 17.055 23.7178 14.0308C23.7178 11.0573 24.7533 8.52737 26.8758 6.39634Z" fill="white"/>
<path d="M112.02 6.14806C109.899 4.21588 107.332 3.22392 104.42 3.22392C101.41 3.22392 98.8435 4.26415 96.7221 6.39634C94.6488 8.52737 93.6133 11.0573 93.6133 14.0308C93.6133 17.055 94.6488 19.5837 96.7221 21.7147C98.7943 23.7975 101.361 24.8389 104.42 24.8389C106.121 24.8389 107.871 24.3067 108.919 23.8665V18.3124C107.816 19.5412 106.222 20.2768 104.42 20.2768C101.015 20.2768 98.3503 17.6504 98.3503 14.0308C98.3503 10.4619 101.015 7.78485 104.42 7.78485C107.883 7.78485 110.429 10.4009 110.488 13.9067H110.49V22.9055V24.5906H115.227V14.1802C115.227 10.7596 114.142 8.08255 112.02 6.14806Z" fill="white"/>
<path d="M9.96013 1.3904C9.9567 1.3904 9.95327 1.3904 9.94869 1.3904C7.71863 1.70304 5.73686 2.6858 4.05602 4.31223C2.85117 5.51338 2.02505 7.09614 1.6017 9.01683C1.5914 9.06856 1.62 9.11913 1.67035 9.13407C1.68179 9.13752 1.69094 9.13867 1.70239 9.13867C1.74129 9.13752 1.7779 9.11338 1.79278 9.0743C2.34543 7.59959 3.22304 6.22143 4.40157 4.97775C6.03207 3.25476 7.85937 2.14557 9.9876 1.58695C10.0391 1.5743 10.0711 1.52258 10.0608 1.47086C10.0517 1.42258 10.0082 1.38925 9.96013 1.3904Z" fill="#F47421"/>
<path d="M8.86962 0.0202904C8.86619 0.0202904 8.86161 0.0202904 8.85818 0.0214396C6.52743 0.347876 4.45527 1.37431 2.69891 3.07431C1.43913 4.33064 0.575258 5.98466 0.133593 7.99155C0.121007 8.04558 0.153045 8.0996 0.205679 8.11454C0.217121 8.11799 0.227419 8.11914 0.237716 8.11914C0.280052 8.11799 0.317811 8.09155 0.33383 8.05132C0.910511 6.51109 1.82817 5.07086 3.06048 3.76972C4.7642 1.96972 6.67389 0.809945 8.89823 0.227187C8.95201 0.212244 8.98633 0.15937 8.97489 0.104198C8.96459 0.0547733 8.91997 0.0191412 8.86962 0.0202904Z" fill="#F47421"/>
<path d="M120.871 22.2115C120.871 23.5265 119.81 24.5908 118.502 24.5908C117.193 24.5908 116.133 23.5265 116.133 22.2115C116.133 20.8966 117.193 19.8322 118.502 19.8322C119.81 19.8322 120.871 20.8966 120.871 22.2115Z" fill="#F47421"/>
</g>
<defs>
<clipPath id="clip0_4026_39189">
<rect width="121" height="25" fill="white"/>
</clipPath>
</defs>
</svg>
