<svg width="195" height="195" viewBox="0 0 195 195" fill="none" xmlns="http://www.w3.org/2000/svg">
<rect width="195" height="195" fill="url(#paint0_radial_4847_5)"/>
<g clip-path="url(#clip0_4847_5)">
<path d="M75.2315 153H50.1471V93.1321C50.1471 75.4348 54.851 62.4202 63.9964 53.8298C73.4012 45.2395 84.6393 40.8152 97.4424 40.8152C110.245 40.8152 121.48 45.2395 130.888 53.8298C140.296 62.4202 145 75.6931 145 93.1321V153H119.913V93.1321C119.913 74.6508 111.029 64.76 97.4424 64.76C83.8553 64.76 75.2315 74.3926 75.2315 93.1321V153Z" fill="white"/>
<path d="M86.0413 31.1907C86.023 31.1907 86.0017 31.1907 85.9834 31.1937C74.1718 32.8346 63.6749 37.9913 54.7826 46.533C48.3979 52.8413 44.0265 61.149 41.7844 71.2343C41.7264 71.5048 41.885 71.7722 42.1504 71.8512C42.2053 71.8664 42.2603 71.8755 42.3152 71.8725C42.5257 71.8694 42.7178 71.7388 42.7971 71.5321C45.7226 63.7957 50.3716 56.5606 56.6099 50.0244C65.2429 40.9813 74.9161 35.1592 86.1878 32.2269C86.4593 32.154 86.627 31.8866 86.5752 31.6131C86.5233 31.3609 86.2945 31.1846 86.0413 31.1907Z" fill="#F47421"/>
<path d="M80.2708 24.0002C80.2494 24.0002 80.2281 24.0002 80.2067 24.0032C67.8643 25.717 56.8916 31.1076 47.5966 40.0352C40.9251 46.6261 36.3555 55.3137 34.0127 65.8518C33.9517 66.1344 34.1164 66.417 34.394 66.499C34.4519 66.5173 34.5099 66.5233 34.5679 66.5203C34.7844 66.5173 34.9888 66.3805 35.0712 66.1648C38.1278 58.0789 42.9842 50.5156 49.5093 43.6877C58.5297 34.2344 68.6422 28.1479 80.4233 25.0819C80.707 25.009 80.8839 24.7294 80.826 24.4438C80.7741 24.1794 80.5362 23.9941 80.2708 24.0002Z" fill="#F47421"/>
</g>
<defs>
<radialGradient id="paint0_radial_4847_5" cx="0" cy="0" r="1" gradientUnits="userSpaceOnUse" gradientTransform="rotate(45) scale(275.772 165.808)">
<stop stop-color="#8B39C6"/>
<stop offset="1" stop-color="#401A5B"/>
</radialGradient>
<clipPath id="clip0_4847_5">
<rect width="111" height="129" fill="white" transform="matrix(1 0 0 -1 34 153)"/>
</clipPath>
</defs>
</svg>
