<svg width="96" height="112" viewBox="0 0 96 112" fill="none" xmlns="http://www.w3.org/2000/svg">
<g id="Logo" clip-path="url(#clip0_309_134)">
<path id="path122" d="M35.4218 111.255L13.8719 111.255L13.8719 59.6226C13.8719 44.3597 17.913 33.1353 25.7698 25.7266C33.8494 18.3179 43.504 14.5022 54.503 14.5022C65.502 14.5022 75.154 18.3179 83.2363 25.7266C91.3185 33.1353 95.3596 44.5825 95.3596 59.6226L95.3596 111.255L73.807 111.255L73.807 59.6226C73.807 43.6836 66.1756 35.1532 54.503 35.1532C42.8305 35.1532 35.4218 43.4608 35.4218 59.6226L35.4218 111.255Z" fill="white"/>
<path id="path126" d="M44.7085 6.20155C44.6927 6.20155 44.6744 6.20155 44.6587 6.20417C34.5114 7.61934 25.4936 12.0666 17.8543 19.4334C12.3692 24.874 8.61371 32.0389 6.68751 40.737C6.63772 40.9702 6.77399 41.2009 7.00199 41.269C7.04917 41.2821 7.09634 41.29 7.14351 41.2873C7.32434 41.2847 7.48944 41.172 7.55758 40.9938C10.0708 34.3215 14.0648 28.0817 19.4241 22.4446C26.8406 14.6454 35.1508 9.62416 44.8343 7.0952C45.0675 7.0323 45.2116 6.80168 45.1671 6.56582C45.1225 6.3483 44.926 6.1963 44.7085 6.20155Z" fill="#F47421"/>
<path id="path130" d="M39.751 0.000103336C39.7327 0.000103338 39.7143 9.95249e-05 39.696 0.00272022C29.0927 1.48079 19.666 6.1299 11.6808 13.8295C5.94936 19.5138 2.02357 27.0063 0.0108767 36.0949C-0.0415371 36.3386 0.0999802 36.5823 0.338463 36.6531C0.388256 36.6688 0.438047 36.674 0.48784 36.6714C0.673909 36.6688 0.849495 36.5509 0.920254 36.3648C3.54618 29.3911 7.71832 22.8682 13.324 16.9796C21.0734 8.82659 29.7609 3.57734 39.882 0.933068C40.1258 0.870171 40.2778 0.629067 40.228 0.382721C40.1834 0.154724 39.979 -0.00513808 39.751 0.000103336Z" fill="#F47421"/>
</g>
<defs>
<clipPath id="clip0_309_134">
<rect width="95.3596" height="111.255" fill="white" transform="matrix(1 -8.74228e-08 -8.74228e-08 -1 0 111.255)"/>
</clipPath>
</defs>
</svg>
